<svg width="139" height="18" viewBox="0 0 139 18" fill="none" xmlns="http://www.w3.org/2000/svg">
<path d="M13.7656 7.07892L14.9999 10.8202L9.57387 12.4936L5.46661 12.3344L5.46661 9.6801L13.7656 7.07892Z" fill="#06EDC4"/>
<rect width="4.00289" height="7.67058" transform="matrix(-0.794699 0.607004 -0.63 -0.776595 13.2832 15.5448)" fill="#001769"/>
<path d="M1.64112 15.5503L4.82221 17.9801L7.54961 14.6701L7.44033 11.8566L6.61972 9.3616L1.64112 15.5503Z" fill="#DC5B99"/>
<rect x="5.47449" y="4.00009" width="4.05109" height="7.64935" fill="#FED812"/>
<mask id="mask0_1327_486" style="mask-type:alpha" maskUnits="userSpaceOnUse" x="5" y="4" width="5" height="14">
<rect x="9.51904" y="17.2714" width="4.04841" height="13.2713" transform="rotate(180 9.51904 17.2714)" fill="#A7A7A7"/>
</mask>
<g mask="url(#mask0_1327_486)">
<path d="M13.7556 4.83557L14.9899 8.57685L5.4566 11.5382L5.4566 7.43675L13.7556 4.83557Z" fill="#001769"/>
</g>
<path d="M1.23425 7.07892L-5.73774e-05 10.8202L9.53327 13.7816L9.53327 9.6801L1.23425 7.07892Z" fill="#FF4B40"/>
<path d="M25.126 12.4385H21.8652V10.3818H25.126C25.6299 10.3818 26.04 10.2998 26.3564 10.1357C26.6729 9.96582 26.9043 9.73145 27.0508 9.43262C27.1973 9.13379 27.2705 8.79688 27.2705 8.42188C27.2705 8.04102 27.1973 7.68652 27.0508 7.3584C26.9043 7.03027 26.6729 6.7666 26.3564 6.56738C26.04 6.36816 25.6299 6.26855 25.126 6.26855H22.7793V17H20.1426V4.20312H25.126C26.1279 4.20312 26.9863 4.38477 27.7012 4.74805C28.4219 5.10547 28.9727 5.60059 29.3535 6.2334C29.7344 6.86621 29.9248 7.58984 29.9248 8.4043C29.9248 9.23047 29.7344 9.94531 29.3535 10.5488C28.9727 11.1523 28.4219 11.6182 27.7012 11.9463C26.9863 12.2744 26.1279 12.4385 25.126 12.4385ZM35.8398 17.1758C35.1016 17.1758 34.4395 17.0586 33.8535 16.8242C33.2676 16.584 32.7695 16.2529 32.3594 15.8311C31.9551 15.4092 31.6445 14.9199 31.4277 14.3633C31.2109 13.8008 31.1025 13.2031 31.1025 12.5703V12.2188C31.1025 11.498 31.2051 10.8389 31.4102 10.2412C31.6152 9.64355 31.9082 9.125 32.2891 8.68555C32.6758 8.24609 33.1445 7.90918 33.6953 7.6748C34.2461 7.43457 34.8672 7.31445 35.5586 7.31445C36.2324 7.31445 36.8301 7.42578 37.3516 7.64844C37.873 7.87109 38.3096 8.1875 38.6611 8.59766C39.0186 9.00781 39.2881 9.5 39.4697 10.0742C39.6514 10.6426 39.7422 11.2754 39.7422 11.9727V13.0273H32.1836V11.3398H37.2549V11.1465C37.2549 10.7949 37.1904 10.4814 37.0615 10.2061C36.9385 9.9248 36.751 9.70215 36.499 9.53809C36.2471 9.37402 35.9248 9.29199 35.5322 9.29199C35.1982 9.29199 34.9111 9.36523 34.6709 9.51172C34.4307 9.6582 34.2344 9.86328 34.082 10.127C33.9355 10.3906 33.8242 10.7012 33.748 11.0586C33.6777 11.4102 33.6426 11.7969 33.6426 12.2188V12.5703C33.6426 12.9512 33.6953 13.3027 33.8008 13.625C33.9121 13.9473 34.0674 14.2256 34.2666 14.46C34.4717 14.6943 34.7178 14.876 35.0049 15.0049C35.2979 15.1338 35.6289 15.1982 35.998 15.1982C36.4551 15.1982 36.8799 15.1104 37.2725 14.9346C37.6709 14.7529 38.0137 14.4805 38.3008 14.1172L39.5312 15.4531C39.332 15.7402 39.0596 16.0156 38.7139 16.2793C38.374 16.543 37.9639 16.7598 37.4834 16.9297C37.0029 17.0938 36.4551 17.1758 35.8398 17.1758ZM45.8418 7.49023V9.2832H40.3047V7.49023H45.8418ZM41.6758 5.14355H44.207V14.1348C44.207 14.4102 44.2422 14.6211 44.3125 14.7676C44.3887 14.9141 44.5 15.0166 44.6465 15.0752C44.793 15.1279 44.9775 15.1543 45.2002 15.1543C45.3584 15.1543 45.499 15.1484 45.6221 15.1367C45.751 15.1191 45.8594 15.1016 45.9473 15.084L45.9561 16.9473C45.7393 17.0176 45.5049 17.0732 45.2529 17.1143C45.001 17.1553 44.7227 17.1758 44.418 17.1758C43.8613 17.1758 43.375 17.085 42.959 16.9033C42.5488 16.7158 42.2324 16.417 42.0098 16.0068C41.7871 15.5967 41.6758 15.0576 41.6758 14.3896V5.14355ZM50.0781 4.20312V17H47.4414V4.20312H50.0781ZM55.1758 9.66992V11.7266H49.3574V9.66992H55.1758ZM55.791 4.20312V6.26855H49.3574V4.20312H55.791ZM56.5645 12.3418V12.1572C56.5645 11.46 56.6641 10.8184 56.8633 10.2324C57.0625 9.64062 57.3525 9.12793 57.7334 8.69434C58.1143 8.26074 58.583 7.92383 59.1396 7.68359C59.6963 7.4375 60.335 7.31445 61.0557 7.31445C61.7764 7.31445 62.418 7.4375 62.9805 7.68359C63.543 7.92383 64.0146 8.26074 64.3955 8.69434C64.7822 9.12793 65.0752 9.64062 65.2744 10.2324C65.4736 10.8184 65.5732 11.46 65.5732 12.1572V12.3418C65.5732 13.0332 65.4736 13.6748 65.2744 14.2666C65.0752 14.8525 64.7822 15.3652 64.3955 15.8047C64.0146 16.2383 63.5459 16.5752 62.9893 16.8154C62.4326 17.0557 61.7939 17.1758 61.0732 17.1758C60.3525 17.1758 59.7109 17.0557 59.1484 16.8154C58.5918 16.5752 58.1201 16.2383 57.7334 15.8047C57.3525 15.3652 57.0625 14.8525 56.8633 14.2666C56.6641 13.6748 56.5645 13.0332 56.5645 12.3418ZM59.0957 12.1572V12.3418C59.0957 12.7402 59.1309 13.1123 59.2012 13.458C59.2715 13.8037 59.3828 14.1084 59.5352 14.3721C59.6934 14.6299 59.8984 14.832 60.1504 14.9785C60.4023 15.125 60.71 15.1982 61.0732 15.1982C61.4248 15.1982 61.7266 15.125 61.9785 14.9785C62.2305 14.832 62.4326 14.6299 62.585 14.3721C62.7373 14.1084 62.8486 13.8037 62.9189 13.458C62.9951 13.1123 63.0332 12.7402 63.0332 12.3418V12.1572C63.0332 11.7705 62.9951 11.4072 62.9189 11.0674C62.8486 10.7217 62.7344 10.417 62.5762 10.1533C62.4238 9.88379 62.2217 9.67285 61.9697 9.52051C61.7178 9.36816 61.4131 9.29199 61.0557 9.29199C60.6982 9.29199 60.3936 9.36816 60.1416 9.52051C59.8955 9.67285 59.6934 9.88379 59.5352 10.1533C59.3828 10.417 59.2715 10.7217 59.2012 11.0674C59.1309 11.4072 59.0957 11.7705 59.0957 12.1572ZM66.7246 12.3418V12.1572C66.7246 11.46 66.8242 10.8184 67.0234 10.2324C67.2227 9.64062 67.5127 9.12793 67.8936 8.69434C68.2744 8.26074 68.7432 7.92383 69.2998 7.68359C69.8564 7.4375 70.4951 7.31445 71.2158 7.31445C71.9365 7.31445 72.5781 7.4375 73.1406 7.68359C73.7031 7.92383 74.1748 8.26074 74.5557 8.69434C74.9424 9.12793 75.2354 9.64062 75.4346 10.2324C75.6338 10.8184 75.7334 11.46 75.7334 12.1572V12.3418C75.7334 13.0332 75.6338 13.6748 75.4346 14.2666C75.2354 14.8525 74.9424 15.3652 74.5557 15.8047C74.1748 16.2383 73.7061 16.5752 73.1494 16.8154C72.5928 17.0557 71.9541 17.1758 71.2334 17.1758C70.5127 17.1758 69.8711 17.0557 69.3086 16.8154C68.752 16.5752 68.2803 16.2383 67.8936 15.8047C67.5127 15.3652 67.2227 14.8525 67.0234 14.2666C66.8242 13.6748 66.7246 13.0332 66.7246 12.3418ZM69.2559 12.1572V12.3418C69.2559 12.7402 69.291 13.1123 69.3613 13.458C69.4316 13.8037 69.543 14.1084 69.6953 14.3721C69.8535 14.6299 70.0586 14.832 70.3105 14.9785C70.5625 15.125 70.8701 15.1982 71.2334 15.1982C71.585 15.1982 71.8867 15.125 72.1387 14.9785C72.3906 14.832 72.5928 14.6299 72.7451 14.3721C72.8975 14.1084 73.0088 13.8037 73.0791 13.458C73.1553 13.1123 73.1934 12.7402 73.1934 12.3418V12.1572C73.1934 11.7705 73.1553 11.4072 73.0791 11.0674C73.0088 10.7217 72.8945 10.417 72.7363 10.1533C72.584 9.88379 72.3818 9.67285 72.1299 9.52051C71.8779 9.36816 71.5732 9.29199 71.2158 9.29199C70.8584 9.29199 70.5537 9.36816 70.3018 9.52051C70.0557 9.67285 69.8535 9.88379 69.6953 10.1533C69.543 10.417 69.4316 10.7217 69.3613 11.0674C69.291 11.4072 69.2559 11.7705 69.2559 12.1572ZM82.9053 14.9258V3.5H85.4541V17H83.1602L82.9053 14.9258ZM76.8936 12.3594V12.1748C76.8936 11.4482 76.9756 10.7891 77.1396 10.1973C77.3037 9.59961 77.5439 9.08691 77.8604 8.65918C78.1768 8.23145 78.5664 7.90039 79.0293 7.66602C79.4922 7.43164 80.0195 7.31445 80.6113 7.31445C81.168 7.31445 81.6543 7.43164 82.0703 7.66602C82.4922 7.90039 82.8496 8.23438 83.1426 8.66797C83.4414 9.0957 83.6816 9.60254 83.8633 10.1885C84.0449 10.7686 84.1768 11.4043 84.2588 12.0957V12.5C84.1768 13.1621 84.0449 13.7773 83.8633 14.3457C83.6816 14.9141 83.4414 15.4121 83.1426 15.8398C82.8496 16.2617 82.4922 16.5898 82.0703 16.8242C81.6484 17.0586 81.1562 17.1758 80.5938 17.1758C80.002 17.1758 79.4746 17.0557 79.0117 16.8154C78.5547 16.5752 78.168 16.2383 77.8516 15.8047C77.541 15.3711 77.3037 14.8613 77.1396 14.2754C76.9756 13.6895 76.8936 13.0508 76.8936 12.3594ZM79.4248 12.1748V12.3594C79.4248 12.752 79.4541 13.1182 79.5127 13.458C79.5771 13.7979 79.6797 14.0996 79.8203 14.3633C79.9668 14.6211 80.1543 14.8232 80.3828 14.9697C80.6172 15.1104 80.9014 15.1807 81.2354 15.1807C81.6689 15.1807 82.0264 15.084 82.3076 14.8906C82.5889 14.6914 82.8027 14.4189 82.9492 14.0732C83.1016 13.7275 83.1895 13.3291 83.2129 12.8779V11.7266C83.1953 11.3574 83.1426 11.0264 83.0547 10.7334C82.9727 10.4346 82.8496 10.1797 82.6855 9.96875C82.5273 9.75781 82.3281 9.59375 82.0879 9.47656C81.8535 9.35938 81.5752 9.30078 81.2529 9.30078C80.9248 9.30078 80.6436 9.37695 80.4092 9.5293C80.1748 9.67578 79.9844 9.87793 79.8379 10.1357C79.6973 10.3936 79.5918 10.6982 79.5215 11.0498C79.457 11.3955 79.4248 11.7705 79.4248 12.1748ZM90.2266 4.20312V17H87.5898V4.20312H90.2266ZM95.3242 9.66992V11.7266H89.5059V9.66992H95.3242ZM95.9395 4.20312V6.26855H89.5059V4.20312H95.9395ZM99.9824 7.49023V17H97.4424V7.49023H99.9824ZM97.2842 5.01172C97.2842 4.64258 97.4131 4.33789 97.6709 4.09766C97.9287 3.85742 98.2744 3.7373 98.708 3.7373C99.1357 3.7373 99.4785 3.85742 99.7363 4.09766C100 4.33789 100.132 4.64258 100.132 5.01172C100.132 5.38086 100 5.68555 99.7363 5.92578C99.4785 6.16602 99.1357 6.28613 98.708 6.28613C98.2744 6.28613 97.9287 6.16602 97.6709 5.92578C97.4131 5.68555 97.2842 5.38086 97.2842 5.01172ZM104.553 9.52051V17H102.021V7.49023H104.395L104.553 9.52051ZM104.184 11.9111H103.498C103.498 11.208 103.589 10.5752 103.771 10.0127C103.952 9.44434 104.207 8.96094 104.535 8.5625C104.863 8.1582 105.253 7.85059 105.704 7.63965C106.161 7.42285 106.671 7.31445 107.233 7.31445C107.679 7.31445 108.086 7.37891 108.455 7.50781C108.824 7.63672 109.141 7.8418 109.404 8.12305C109.674 8.4043 109.879 8.77637 110.02 9.23926C110.166 9.70215 110.239 10.2676 110.239 10.9355V17H107.69V10.9268C107.69 10.5049 107.632 10.1768 107.515 9.94238C107.397 9.70801 107.225 9.54395 106.996 9.4502C106.773 9.35059 106.498 9.30078 106.17 9.30078C105.83 9.30078 105.534 9.36816 105.282 9.50293C105.036 9.6377 104.831 9.8252 104.667 10.0654C104.509 10.2998 104.389 10.5752 104.307 10.8916C104.225 11.208 104.184 11.5479 104.184 11.9111ZM117.78 14.9258V3.5H120.329V17H118.035L117.78 14.9258ZM111.769 12.3594V12.1748C111.769 11.4482 111.851 10.7891 112.015 10.1973C112.179 9.59961 112.419 9.08691 112.735 8.65918C113.052 8.23145 113.441 7.90039 113.904 7.66602C114.367 7.43164 114.895 7.31445 115.486 7.31445C116.043 7.31445 116.529 7.43164 116.945 7.66602C117.367 7.90039 117.725 8.23438 118.018 8.66797C118.316 9.0957 118.557 9.60254 118.738 10.1885C118.92 10.7686 119.052 11.4043 119.134 12.0957V12.5C119.052 13.1621 118.92 13.7773 118.738 14.3457C118.557 14.9141 118.316 15.4121 118.018 15.8398C117.725 16.2617 117.367 16.5898 116.945 16.8242C116.523 17.0586 116.031 17.1758 115.469 17.1758C114.877 17.1758 114.35 17.0557 113.887 16.8154C113.43 16.5752 113.043 16.2383 112.727 15.8047C112.416 15.3711 112.179 14.8613 112.015 14.2754C111.851 13.6895 111.769 13.0508 111.769 12.3594ZM114.3 12.1748V12.3594C114.3 12.752 114.329 13.1182 114.388 13.458C114.452 13.7979 114.555 14.0996 114.695 14.3633C114.842 14.6211 115.029 14.8232 115.258 14.9697C115.492 15.1104 115.776 15.1807 116.11 15.1807C116.544 15.1807 116.901 15.084 117.183 14.8906C117.464 14.6914 117.678 14.4189 117.824 14.0732C117.977 13.7275 118.064 13.3291 118.088 12.8779V11.7266C118.07 11.3574 118.018 11.0264 117.93 10.7334C117.848 10.4346 117.725 10.1797 117.561 9.96875C117.402 9.75781 117.203 9.59375 116.963 9.47656C116.729 9.35938 116.45 9.30078 116.128 9.30078C115.8 9.30078 115.519 9.37695 115.284 9.5293C115.05 9.67578 114.859 9.87793 114.713 10.1357C114.572 10.3936 114.467 10.6982 114.396 11.0498C114.332 11.3955 114.3 11.7705 114.3 12.1748ZM126.684 17.1758C125.945 17.1758 125.283 17.0586 124.697 16.8242C124.111 16.584 123.613 16.2529 123.203 15.8311C122.799 15.4092 122.488 14.9199 122.271 14.3633C122.055 13.8008 121.946 13.2031 121.946 12.5703V12.2188C121.946 11.498 122.049 10.8389 122.254 10.2412C122.459 9.64355 122.752 9.125 123.133 8.68555C123.52 8.24609 123.988 7.90918 124.539 7.6748C125.09 7.43457 125.711 7.31445 126.402 7.31445C127.076 7.31445 127.674 7.42578 128.195 7.64844C128.717 7.87109 129.153 8.1875 129.505 8.59766C129.862 9.00781 130.132 9.5 130.313 10.0742C130.495 10.6426 130.586 11.2754 130.586 11.9727V13.0273H123.027V11.3398H128.099V11.1465C128.099 10.7949 128.034 10.4814 127.905 10.2061C127.782 9.9248 127.595 9.70215 127.343 9.53809C127.091 9.37402 126.769 9.29199 126.376 9.29199C126.042 9.29199 125.755 9.36523 125.515 9.51172C125.274 9.6582 125.078 9.86328 124.926 10.127C124.779 10.3906 124.668 10.7012 124.592 11.0586C124.521 11.4102 124.486 11.7969 124.486 12.2188V12.5703C124.486 12.9512 124.539 13.3027 124.645 13.625C124.756 13.9473 124.911 14.2256 125.11 14.46C125.315 14.6943 125.562 14.876 125.849 15.0049C126.142 15.1338 126.473 15.1982 126.842 15.1982C127.299 15.1982 127.724 15.1104 128.116 14.9346C128.515 14.7529 128.857 14.4805 129.145 14.1172L130.375 15.4531C130.176 15.7402 129.903 16.0156 129.558 16.2793C129.218 16.543 128.808 16.7598 128.327 16.9297C127.847 17.0938 127.299 17.1758 126.684 17.1758ZM134.559 9.56445V17H132.027V7.49023H134.409L134.559 9.56445ZM137.424 7.42871L137.38 9.77539C137.257 9.75781 137.107 9.74316 136.932 9.73145C136.762 9.71387 136.606 9.70508 136.466 9.70508C136.108 9.70508 135.798 9.75195 135.534 9.8457C135.276 9.93359 135.06 10.0654 134.884 10.2412C134.714 10.417 134.585 10.6309 134.497 10.8828C134.415 11.1348 134.368 11.4219 134.356 11.7441L133.847 11.5859C133.847 10.9707 133.908 10.4053 134.031 9.88965C134.154 9.36816 134.333 8.91406 134.567 8.52734C134.808 8.14062 135.101 7.8418 135.446 7.63086C135.792 7.41992 136.188 7.31445 136.633 7.31445C136.773 7.31445 136.917 7.32617 137.063 7.34961C137.21 7.36719 137.33 7.39355 137.424 7.42871Z" fill="white"/>
</svg>
